<svg width="18" height="18" viewBox="0 0 18 18" fill="none" xmlns="http://www.w3.org/2000/svg">
<path d="M12.1483 2.15103C9.41962 -0.61876 4.94621 -0.652194 2.17637 2.07637C-0.593479 4.80505 -0.62697 9.27841 2.10171 12.0482C4.41662 14.398 7.88282 14.7772 10.6038 13.1726C10.6038 13.1726 10.8005 13.0573 10.9568 13.2161C11.8494 14.1222 14.5274 16.8406 14.5274 16.8406C15.238 17.562 16.2379 17.7399 16.8778 17.1097L16.9878 17.0012C17.6277 16.3709 17.4648 15.3684 16.7541 14.647C16.7541 14.647 14.0817 11.9344 13.191 11.0302C13.0271 10.8638 13.1453 10.6689 13.1453 10.6689C14.7904 7.97235 14.4632 4.50087 12.1483 2.15103ZM10.7816 10.8113C8.73493 12.8276 5.42961 12.8028 3.4134 10.7561C1.39724 8.70949 1.42193 5.40417 3.46856 3.38801C5.51514 1.37179 8.82051 1.39654 10.8367 3.44317C12.8528 5.4898 12.8281 8.79507 10.7816 10.8113Z" fill="white"/>
</svg>
